<svg width="16" height="16" viewBox="0 0 16 16" fill="none" xmlns="http://www.w3.org/2000/svg">
<path d="M8.00004 1.3335C11.682 1.3335 14.6667 4.31816 14.6667 8.00016C14.6667 11.6822 11.682 14.6668 8.00004 14.6668C4.31804 14.6668 1.33337 11.6822 1.33337 8.00016C1.33337 4.31816 4.31804 1.3335 8.00004 1.3335ZM8.00004 2.66683C6.58555 2.66683 5.229 3.22873 4.2288 4.22893C3.22861 5.22912 2.66671 6.58567 2.66671 8.00016C2.66671 9.41465 3.22861 10.7712 4.2288 11.7714C5.229 12.7716 6.58555 13.3335 8.00004 13.3335C9.41453 13.3335 10.7711 12.7716 11.7713 11.7714C12.7715 10.7712 13.3334 9.41465 13.3334 8.00016C13.3334 6.58567 12.7715 5.22912 11.7713 4.22893C10.7711 3.22873 9.41453 2.66683 8.00004 2.66683ZM8.00004 4.00016C8.16333 4.00018 8.32093 4.06013 8.44296 4.16864C8.56498 4.27715 8.64294 4.42666 8.66204 4.58883L8.66671 4.66683V7.72416L10.4714 9.52883C10.5909 9.6488 10.6604 9.80978 10.6655 9.97908C10.6707 10.1484 10.6112 10.3133 10.4992 10.4403C10.3872 10.5674 10.231 10.647 10.0624 10.6631C9.89378 10.6792 9.72537 10.6304 9.59137 10.5268L9.52871 10.4715L7.52871 8.4715C7.42509 8.36779 7.35855 8.23283 7.33937 8.0875L7.33337 8.00016V4.66683C7.33337 4.49002 7.40361 4.32045 7.52864 4.19542C7.65366 4.0704 7.82323 4.00016 8.00004 4.00016Z" fill="#5B656E"/>
</svg>
