<svg width="16" height="15" viewBox="0 0 16 15" fill="none" xmlns="http://www.w3.org/2000/svg">
<path fill-rule="evenodd" clip-rule="evenodd" d="M12.6375 2.67089C11.9733 2.09736 11.0726 1.77516 10.1334 1.77516C9.19413 1.77516 8.29337 2.09736 7.62919 2.67089L2.17919 7.3777C2.02293 7.51275 1.81096 7.58865 1.5899 7.58872C1.36884 7.58879 1.15681 7.51301 1.00044 7.37806C0.844072 7.24311 0.756182 7.06005 0.756104 6.86913C0.756025 6.67822 0.843766 6.4951 1.00002 6.36005L6.45002 1.65323C7.42668 0.809565 8.7514 0.335521 10.1328 0.335386C11.5141 0.335251 12.839 0.809036 13.8159 1.65252C14.7927 2.49599 15.3416 3.64007 15.3418 4.83307C15.3419 6.02606 14.7933 7.17025 13.8167 8.01392L7.18752 13.7384C6.48404 14.3458 5.52995 14.6871 4.53514 14.687C3.54034 14.6869 2.58632 14.3456 1.88294 13.738C1.17956 13.1305 0.784454 12.3065 0.784532 11.4473C0.78461 10.5882 1.17987 9.76426 1.88336 9.1568L8.51086 3.43305C8.94307 3.07062 9.52305 2.86962 10.1255 2.87349C10.7279 2.87736 11.3043 3.08578 11.7302 3.45372C12.1562 3.82166 12.3974 4.31956 12.4017 4.83982C12.406 5.36008 12.1731 5.86092 11.7534 6.23411L5.71419 11.449C5.55793 11.5841 5.34596 11.66 5.1249 11.66C4.90384 11.6601 4.69181 11.5843 4.53544 11.4494C4.37907 11.3144 4.29118 11.1314 4.2911 10.9405C4.29103 10.7495 4.37877 10.5664 4.53502 10.4314L10.5742 5.21573C10.6917 5.11438 10.7577 4.97687 10.7578 4.83347C10.7579 4.69006 10.692 4.55251 10.5746 4.45106C10.4572 4.34961 10.298 4.29257 10.132 4.29251C9.96593 4.29244 9.80666 4.34934 9.68919 4.4507L3.06169 10.1744C2.8681 10.3415 2.71451 10.5399 2.6097 10.7583C2.50489 10.9767 2.4509 11.2107 2.45083 11.4471C2.45075 11.6835 2.50458 11.9175 2.60925 12.1359C2.71392 12.3544 2.86737 12.5528 3.06086 12.72C3.45161 13.0577 3.98167 13.2474 4.53443 13.2476C5.0872 13.2477 5.61738 13.0582 6.00836 12.7207L12.6367 6.99627C13.3008 6.42266 13.6738 5.64472 13.6738 4.83358C13.6738 4.02243 13.3008 3.2445 12.6367 2.67089H12.6375Z" fill="#5B656E"/>
</svg>
