<svg width="16" height="16" viewBox="0 0 16 16" fill="none" xmlns="http://www.w3.org/2000/svg">
<path d="M15.4152 6.19623C15.2067 5.55048 14.657 5.08923 13.9805 4.99323L10.943 4.55826L9.58624 1.85004C9.28474 1.24854 8.67725 0.875 7.99999 0.875C7.32274 0.875 6.71525 1.24854 6.41375 1.85004L5.05699 4.55826L2.0195 4.99323C1.343 5.08998 0.79325 5.55048 0.58475 6.19623C0.3785 6.83673 0.553241 7.52449 1.03924 7.99249L3.23074 10.0985L2.71399 13.0678C2.59924 13.7263 2.86474 14.3817 3.40624 14.7785C3.71899 15.008 4.08725 15.125 4.45775 15.125C4.7375 15.125 5.01948 15.0582 5.27973 14.9225L7.99924 13.514L10.7187 14.9225C11.3255 15.2375 12.0432 15.1805 12.593 14.7785C13.1345 14.3817 13.4 13.7263 13.2852 13.0678L12.7685 10.0985L14.96 7.99249C15.4467 7.52449 15.6215 6.83598 15.4152 6.19623ZM13.9212 6.91098L11.4417 9.293C11.2617 9.46475 11.18 9.71605 11.2227 9.9628L11.8077 13.325C11.8295 13.4487 11.765 13.5261 11.7065 13.5681C11.6637 13.5988 11.5497 13.6625 11.4095 13.5905L8.34499 12.0035C8.12899 11.891 7.871 11.891 7.655 12.0035L4.5905 13.5905C4.45025 13.6625 4.33626 13.5988 4.29351 13.5681C4.23501 13.5253 4.1705 13.4487 4.19225 13.325L4.77725 9.9628C4.82 9.7168 4.7375 9.4655 4.55825 9.293L2.07875 6.91098C1.985 6.82098 1.99099 6.72274 2.01274 6.65674C2.03149 6.59899 2.08474 6.49855 2.23174 6.4783L5.65776 5.98776C5.9015 5.95251 6.11224 5.80102 6.22174 5.58127L7.75399 2.52203C7.81774 2.39378 7.93549 2.375 7.99924 2.375C8.06299 2.375 8.18074 2.39378 8.24449 2.52203L9.77674 5.58127C9.88624 5.80102 10.0977 5.95251 10.3407 5.98776L13.7675 6.4783C13.9145 6.49855 13.9677 6.59899 13.9865 6.65674C14.009 6.72274 14.015 6.82098 13.9212 6.91098Z" fill="#495867"/>
</svg>
