<svg width="16" height="16" viewBox="0 0 16 16" fill="none" xmlns="http://www.w3.org/2000/svg">
<path d="M15.0407 0.352357C14.9328 0.244203 14.8046 0.158398 14.6634 0.0998526C14.5223 0.0413076 14.371 0.0111724 14.2182 0.0111724C14.0654 0.0111724 13.9141 0.0413076 13.773 0.0998526C13.6318 0.158398 13.5036 0.244203 13.3957 0.352357L7.69069 6.04569L1.98569 0.34069C1.87768 0.232678 1.74945 0.146998 1.60832 0.0885423C1.4672 0.0300865 1.31594 1.13809e-09 1.16319 0C1.01044 -1.13809e-09 0.859181 0.0300865 0.718057 0.0885423C0.576932 0.146998 0.448703 0.232678 0.34069 0.34069C0.232678 0.448703 0.146998 0.576932 0.0885423 0.718057C0.0300865 0.859181 -1.13809e-09 1.01044 0 1.16319C1.13809e-09 1.31594 0.0300865 1.4672 0.0885423 1.60832C0.146998 1.74945 0.232678 1.87768 0.34069 1.98569L6.04569 7.69069L0.34069 13.3957C0.232678 13.5037 0.146998 13.6319 0.0885423 13.7731C0.0300865 13.9142 0 14.0654 0 14.2182C0 14.3709 0.0300865 14.5222 0.0885423 14.6633C0.146998 14.8044 0.232678 14.9327 0.34069 15.0407C0.448703 15.1487 0.576932 15.2344 0.718057 15.2928C0.859181 15.3513 1.01044 15.3814 1.16319 15.3814C1.31594 15.3814 1.4672 15.3513 1.60832 15.2928C1.74945 15.2344 1.87768 15.1487 1.98569 15.0407L7.69069 9.33569L13.3957 15.0407C13.5037 15.1487 13.6319 15.2344 13.7731 15.2928C13.9142 15.3513 14.0654 15.3814 14.2182 15.3814C14.3709 15.3814 14.5222 15.3513 14.6633 15.2928C14.8044 15.2344 14.9327 15.1487 15.0407 15.0407C15.1487 14.9327 15.2344 14.8044 15.2928 14.6633C15.3513 14.5222 15.3814 14.3709 15.3814 14.2182C15.3814 14.0654 15.3513 13.9142 15.2928 13.7731C15.2344 13.6319 15.1487 13.5037 15.0407 13.3957L9.33569 7.69069L15.0407 1.98569C15.484 1.54236 15.484 0.795691 15.0407 0.352357Z" fill="#5B656E"/>
</svg>
